<mxfile host="65bd71144e">
    <diagram id="50Fl4j_JJhGjoZKnUIEG" name="ページ1">
        <mxGraphModel dx="620" dy="556" grid="1" gridSize="10" guides="1" tooltips="1" connect="1" arrows="1" fold="1" page="1" pageScale="1" pageWidth="827" pageHeight="1169" math="0" shadow="0">
            <root>
                <mxCell id="0"/>
                <mxCell id="1" parent="0"/>
                <mxCell id="20" value="" style="rounded=0;whiteSpace=wrap;html=1;" vertex="1" parent="1">
                    <mxGeometry x="90" y="300" width="310" height="200" as="geometry"/>
                </mxCell>
                <mxCell id="3" value="" style="rounded=0;whiteSpace=wrap;html=1;align=left;" vertex="1" parent="1">
                    <mxGeometry x="90" y="200" width="310" height="90" as="geometry"/>
                </mxCell>
                <mxCell id="5" value="システム全体" style="text;html=1;strokeColor=none;fillColor=none;align=center;verticalAlign=middle;whiteSpace=wrap;rounded=0;" vertex="1" parent="1">
                    <mxGeometry x="80" y="200" width="100" height="30" as="geometry"/>
                </mxCell>
                <mxCell id="6" value="Creator" style="rounded=0;whiteSpace=wrap;html=1;" vertex="1" parent="1">
                    <mxGeometry x="110" y="240" width="70" height="30" as="geometry"/>
                </mxCell>
                <mxCell id="7" value="Coder" style="rounded=0;whiteSpace=wrap;html=1;" vertex="1" parent="1">
                    <mxGeometry x="210" y="240" width="70" height="30" as="geometry"/>
                </mxCell>
                <mxCell id="8" value="Evaluator" style="rounded=0;whiteSpace=wrap;html=1;" vertex="1" parent="1">
                    <mxGeometry x="310" y="240" width="70" height="30" as="geometry"/>
                </mxCell>
                <mxCell id="9" value="" style="endArrow=classic;html=1;" edge="1" parent="1">
                    <mxGeometry width="50" height="50" relative="1" as="geometry">
                        <mxPoint x="144.5" y="270" as="sourcePoint"/>
                        <mxPoint x="144.5" y="320" as="targetPoint"/>
                    </mxGeometry>
                </mxCell>
                <mxCell id="10" value="" style="endArrow=classic;html=1;" edge="1" parent="1">
                    <mxGeometry width="50" height="50" relative="1" as="geometry">
                        <mxPoint x="344.5" y="270" as="sourcePoint"/>
                        <mxPoint x="344.5" y="320" as="targetPoint"/>
                    </mxGeometry>
                </mxCell>
                <mxCell id="11" value="" style="endArrow=classic;html=1;" edge="1" parent="1">
                    <mxGeometry width="50" height="50" relative="1" as="geometry">
                        <mxPoint x="244.5" y="270" as="sourcePoint"/>
                        <mxPoint x="244.5" y="320" as="targetPoint"/>
                    </mxGeometry>
                </mxCell>
                <mxCell id="12" value="creator&lt;br&gt;.log" style="shape=note;whiteSpace=wrap;html=1;backgroundOutline=1;darkOpacity=0.05;size=14;" vertex="1" parent="1">
                    <mxGeometry x="116.25" y="330" width="57.5" height="70" as="geometry"/>
                </mxCell>
                <mxCell id="16" value="coder&lt;br&gt;.log" style="shape=note;whiteSpace=wrap;html=1;backgroundOutline=1;darkOpacity=0.05;size=14;" vertex="1" parent="1">
                    <mxGeometry x="216.25" y="330" width="57.5" height="70" as="geometry"/>
                </mxCell>
                <mxCell id="17" value="evaluator&lt;br&gt;.log" style="shape=note;whiteSpace=wrap;html=1;backgroundOutline=1;darkOpacity=0.05;size=14;" vertex="1" parent="1">
                    <mxGeometry x="316.25" y="330" width="57.5" height="70" as="geometry"/>
                </mxCell>
                <mxCell id="18" value="model&lt;br&gt;error.log" style="shape=note;whiteSpace=wrap;html=1;backgroundOutline=1;darkOpacity=0.05;size=14;" vertex="1" parent="1">
                    <mxGeometry x="316.25" y="420" width="57.5" height="70" as="geometry"/>
                </mxCell>
                <mxCell id="21" value="ループごとにフォルダーを作成しlogファイルを格納" style="text;html=1;strokeColor=none;fillColor=none;align=center;verticalAlign=middle;whiteSpace=wrap;rounded=0;" vertex="1" parent="1">
                    <mxGeometry x="100" y="460" width="170" height="30" as="geometry"/>
                </mxCell>
            </root>
        </mxGraphModel>
    </diagram>
</mxfile>